<svg width="654" height="488" viewBox="0 0 654 488" fill="none" xmlns="http://www.w3.org/2000/svg">
<g clip-path="url(#clip0_5_43)">
<path d="M586.894 464.312C605.627 450.624 618.534 427.117 614.437 404.257C597.925 423.345 575.204 435.969 550.295 439.893C540.684 441.372 529.839 442.014 523.339 449.259C519.295 453.767 517.81 460.122 518.035 466.179C518.26 472.236 520.025 478.116 521.777 483.918L521.5 485.405C544.594 483.327 568.161 477.999 586.894 464.312Z" fill="#F0F0F0"/>
<path d="M613.951 404.277C607.629 422.429 595.758 438.124 580.024 449.133C576.679 451.563 572.972 453.45 569.04 454.724C565.17 455.841 561.072 455.899 557.172 454.894C553.517 454.029 549.877 452.72 546.076 452.761C544.13 452.81 542.217 453.271 540.462 454.114C538.706 454.956 537.149 456.16 535.891 457.648C532.66 461.273 530.922 465.844 529.377 470.374C527.662 475.403 525.961 480.655 522.132 484.515C521.669 484.982 522.42 485.676 522.883 485.209C529.544 478.493 529.778 468.27 534.889 460.616C537.273 457.045 540.747 454.172 545.16 453.825C549.019 453.522 552.773 454.868 556.467 455.776C560.257 456.813 564.244 456.905 568.078 456.043C572.061 454.974 575.834 453.233 579.235 450.896C586.975 445.756 593.86 439.429 599.638 432.147C606.278 423.872 611.457 414.521 614.949 404.497C615.165 403.877 614.165 403.661 613.951 404.277V404.277Z" fill="white"/>
<path d="M585.298 445.887C587.501 448.28 590.481 449.811 593.706 450.207C596.932 450.603 600.193 449.838 602.907 448.047C603.455 447.683 602.915 446.813 602.367 447.178C599.843 448.85 596.805 449.562 593.802 449.188C590.799 448.813 588.029 447.375 585.992 445.134C585.548 444.648 584.858 445.403 585.298 445.887Z" fill="white"/>
<path d="M558.968 455.576C559.179 448.926 561.885 442.599 566.546 437.858C567.008 437.389 566.257 436.695 565.795 437.164C560.954 442.107 558.151 448.696 557.947 455.617C557.928 456.277 558.949 456.233 558.968 455.576Z" fill="white"/>
<path d="M604.972 423.512C603.927 422.764 603.084 421.767 602.519 420.612C601.954 419.457 601.684 418.179 601.733 416.894C601.76 416.235 600.739 416.28 600.712 416.935C600.664 418.355 600.964 419.766 601.586 421.044C602.207 422.321 603.132 423.427 604.279 424.264C604.38 424.352 604.511 424.398 604.646 424.393C604.78 424.388 604.907 424.331 605.001 424.235C605.092 424.135 605.14 424.003 605.135 423.868C605.129 423.732 605.071 423.605 604.972 423.512Z" fill="white"/>
<path d="M546.049 365.637C546.02 366.049 545.992 366.46 545.955 366.875C545.54 372.4 544.677 377.882 543.375 383.267C543.281 383.685 543.18 384.107 543.074 384.521C539.799 397.461 534.155 409.679 526.428 420.555C523.349 424.88 519.946 428.964 516.249 432.772C511.142 438.03 505.188 443.325 502.201 449.776C501.882 450.446 501.605 451.134 501.371 451.838L519.71 484.951C519.789 485.005 519.861 485.064 519.941 485.119L520.613 486.474C520.817 486.291 521.025 486.097 521.229 485.914C521.348 485.808 521.463 485.695 521.582 485.589C521.66 485.517 521.738 485.444 521.813 485.382C521.839 485.358 521.865 485.334 521.883 485.314C521.958 485.252 522.021 485.188 522.088 485.131C523.254 484.048 524.414 482.955 525.569 481.853C525.576 481.848 525.576 481.849 525.58 481.837C534.358 473.412 542.51 464.179 549.005 454C549.2 453.694 549.403 453.384 549.59 453.062C552.492 448.458 555.013 443.624 557.129 438.608C558.279 435.857 559.289 433.051 560.155 430.198C562.379 422.823 563.432 415.144 563.274 407.441C562.956 392.086 557.74 377.004 546.886 366.437C546.608 366.167 546.335 365.903 546.049 365.637Z" fill="#F0F0F0"/>
<path d="M545.671 365.945C551.534 384.251 551.489 403.941 545.543 422.22C544.333 426.178 542.508 429.92 540.134 433.308C537.716 436.534 534.479 439.052 530.76 440.601C527.321 442.115 523.629 443.265 520.618 445.59C519.094 446.803 517.844 448.325 516.949 450.056C516.053 451.787 515.533 453.688 515.423 455.635C515.022 460.477 516.382 465.176 517.872 469.724C519.526 474.774 521.323 479.993 520.587 485.384C520.498 486.037 521.515 486.137 521.604 485.485C522.885 476.106 516.927 467.802 516.408 458.609C516.165 454.319 517.212 449.931 520.527 446.992C523.426 444.423 527.232 443.234 530.727 441.731C534.377 440.273 537.615 437.942 540.158 434.942C542.696 431.686 544.663 428.02 545.973 424.103C549.064 415.332 550.758 406.128 550.994 396.829C551.323 386.217 549.837 375.628 546.6 365.519C546.4 364.893 545.472 365.323 545.671 365.945Z" fill="white"/>
<path d="M547.804 416.447C551.001 417.03 554.3 416.456 557.114 414.826C559.927 413.197 562.07 410.619 563.161 407.553C563.38 406.932 562.427 406.563 562.208 407.185C561.197 410.042 559.2 412.443 556.577 413.954C553.955 415.466 550.879 415.989 547.905 415.428C547.259 415.307 547.161 416.327 547.804 416.447Z" fill="white"/>
<path d="M532.604 440.063C528.775 434.626 527.133 427.943 528.005 421.346C528.092 420.693 527.075 420.592 526.988 421.245C526.094 428.111 527.817 435.062 531.814 440.712C532.195 441.25 532.984 440.599 532.604 440.063Z" fill="white"/>
<path d="M550.063 386.718C548.779 386.75 547.507 386.463 546.362 385.882C545.216 385.3 544.232 384.443 543.499 383.387C543.125 382.844 542.337 383.496 542.708 384.035C543.524 385.198 544.611 386.144 545.876 386.789C547.14 387.434 548.543 387.759 549.962 387.736C550.096 387.745 550.228 387.703 550.332 387.618C550.436 387.533 550.503 387.411 550.521 387.278C550.534 387.143 550.493 387.008 550.407 386.903C550.321 386.799 550.198 386.732 550.063 386.718Z" fill="white"/>
<path d="M298.067 29.0105C300.425 26.9148 302.898 24.8936 305.417 23.0032L306.343 24.2398C303.857 26.1052 301.417 28.0992 299.091 30.1667L298.067 29.0105ZM313.24 17.627C315.908 15.9517 318.681 14.3678 321.479 12.919L322.188 14.2923C319.427 15.7212 316.692 17.2836 314.059 18.9363L313.24 17.627ZM330.08 8.91144C332.983 7.70207 335.977 6.59737 338.979 5.62699L339.453 7.0981C336.491 8.05498 333.537 9.14541 330.673 10.3384L330.08 8.91144ZM348.471 4.58336L348.117 3.07925C351.188 2.3557 354.321 1.7513 357.428 1.28252L357.658 2.81107C354.592 3.27335 351.501 3.86961 348.471 4.58336ZM366.959 1.79866L366.856 0.256635C369.998 0.0458208 373.188 -0.0357602 376.336 0.014289L376.312 1.55992C373.206 1.51017 370.059 1.5907 366.959 1.79864L366.959 1.79866ZM385.653 2.09866L385.805 0.560952C388.94 0.872964 392.102 1.32109 395.202 1.8928L394.923 3.41287C391.864 2.8486 388.745 2.40648 385.653 2.09863L385.653 2.09866ZM443.48 205.738C445.944 203.847 448.362 201.828 450.666 199.736L451.702 200.881C449.367 203.002 446.916 205.049 444.418 206.965L443.48 205.738ZM404.053 5.49022L404.456 3.99861C407.495 4.82388 410.538 5.78701 413.503 6.86119L412.978 8.31424C410.053 7.25469 407.05 6.30435 404.053 5.49022ZM457.334 193.159C459.455 190.887 461.509 188.497 463.438 186.056L464.648 187.015C462.693 189.489 460.611 191.911 458.461 194.215L457.334 193.159ZM421.642 11.8636L422.284 10.4579C425.149 11.7715 427.994 13.2196 430.741 14.7631L429.986 16.1108C427.276 14.5882 424.469 13.159 421.642 11.8636ZM468.941 178.474C470.665 175.883 472.302 173.189 473.808 170.466L475.157 171.215C473.632 173.974 471.973 176.705 470.226 179.331L468.941 178.474ZM437.954 21.0274L438.816 19.7461C441.427 21.5089 443.998 23.4024 446.457 25.3739L445.493 26.5804C443.067 24.6352 440.531 22.767 437.954 21.0274ZM478.003 162.086C479.281 159.248 480.457 156.321 481.499 153.389L482.953 153.907C481.897 156.879 480.705 159.845 479.41 162.721L478.003 162.086ZM452.55 32.7322L453.61 31.6092C455.9 33.7774 458.125 36.0661 460.226 38.4121L459.077 39.4437C457.005 37.1293 454.809 34.8715 452.55 32.7322ZM484.269 144.434C485.067 141.42 485.748 138.34 486.293 135.28L487.813 135.551C487.26 138.654 486.569 141.775 485.761 144.83L484.269 144.434ZM465.027 46.6707L466.257 45.7374C468.158 48.2515 469.977 50.8752 471.662 53.5359L470.359 54.3637C468.697 51.739 466.903 49.1506 465.027 46.6707ZM487.555 125.989C487.846 122.891 488.01 119.741 488.043 116.627L489.585 116.643C489.552 119.8 489.386 122.993 489.091 126.134L487.555 125.989ZM475.039 62.4787L476.406 61.7622C477.865 64.5533 479.226 67.4438 480.453 70.3528L479.032 70.9541C477.821 68.0841 476.478 65.2328 475.039 62.4787H475.039ZM487.753 107.256C487.529 104.158 487.172 101.024 486.692 97.9432L488.216 97.7049C488.703 100.828 489.065 104.004 489.292 107.144L487.753 107.256ZM482.314 79.7301L483.779 79.2475C484.761 82.2397 485.635 85.3236 486.372 88.386L484.872 88.7482C484.145 85.7238 483.282 82.6833 482.314 79.7301L482.314 79.7301Z" fill="#F0F0F0"/>
<path d="M455.825 255.658L466.368 220.357L446.354 215.439L438.987 251.391L426.394 301.822C424.744 302.681 423.381 304.004 422.474 305.629C421.566 307.254 421.153 309.11 421.286 310.967C421.419 312.825 422.092 314.602 423.222 316.081C424.352 317.56 425.89 318.674 427.645 319.288C429.4 319.902 431.296 319.987 433.099 319.534C434.903 319.08 436.534 318.108 437.791 316.737C439.049 315.366 439.879 313.656 440.178 311.818C440.477 309.98 440.232 308.095 439.473 306.394L439.667 306.459L455.825 255.658Z" fill="#9E616A"/>
<path d="M536.461 255.686L535.63 218.849L515.077 220.348L519.13 256.825L522.664 308.689C521.359 310.015 520.47 311.694 520.106 313.52C519.743 315.347 519.921 317.239 520.619 318.965C521.317 320.691 522.504 322.174 524.034 323.232C525.564 324.29 527.37 324.876 529.228 324.918C531.087 324.96 532.917 324.456 534.493 323.468C536.068 322.48 537.321 321.052 538.096 319.359C538.871 317.666 539.134 315.783 538.853 313.943C538.572 312.102 537.759 310.384 536.514 309.001L536.718 309.002L536.461 255.686Z" fill="#9E616A"/>
<path d="M447.973 475.286H435.343L431.395 426.488L447.975 426.489L447.973 475.286Z" fill="#9E616A"/>
<path d="M451.194 487.549L410.47 487.548V487.032C410.47 484.947 410.88 482.882 411.676 480.956C412.473 479.03 413.64 477.279 415.112 475.805C416.584 474.331 418.332 473.161 420.255 472.363C422.178 471.565 424.239 471.155 426.321 471.155H426.322L451.194 471.156L451.194 487.549Z" fill="#2F2E41"/>
<path d="M515.966 475.286H503.336L497.327 426.488L515.968 426.489L515.966 475.286Z" fill="#9E616A"/>
<path d="M519.186 487.549L478.462 487.548V487.032C478.462 484.947 478.872 482.882 479.669 480.956C480.465 479.03 481.633 477.279 483.105 475.805C484.577 474.331 486.324 473.161 488.248 472.363C490.171 471.565 492.232 471.155 494.313 471.155H494.314L519.187 471.156L519.186 487.549Z" fill="#2F2E41"/>
<path d="M513.725 459.672H513.725C513.631 459.672 513.537 459.669 513.443 459.664L502.572 459.058C501.41 458.995 500.307 458.523 499.458 457.726C498.609 456.928 498.068 455.857 497.93 454.699L484.614 335.931C484.582 335.679 484.474 335.444 484.303 335.257C484.133 335.069 483.909 334.939 483.662 334.884C483.415 334.829 483.157 334.852 482.924 334.95C482.69 335.047 482.492 335.214 482.357 335.428L465.391 362.336C462.373 367.107 460.419 372.475 459.662 378.071L451.042 449.408C450.878 450.596 450.291 451.685 449.389 452.475C448.487 453.265 447.331 453.703 446.133 453.708H434.071C432.799 453.709 431.575 453.22 430.654 452.341C429.733 451.462 429.184 450.262 429.123 448.989L426.368 384.348C425.922 375.341 427.157 366.328 430.01 357.774L455.98 291.201L456.131 291.158L518.64 273.267L518.669 454.845C518.634 456.136 518.098 457.362 517.175 458.263C516.252 459.165 515.014 459.67 513.725 459.672Z" fill="#2F2E41"/>
<path d="M504.737 186.481H471.509L446.961 198.275L455.299 292.094L517.689 293.751L530.473 200.681L504.737 186.481Z" fill="#9A5EFB"/>
<path d="M521.647 203.658L530.473 200.681L545.751 236.062L512.362 247.506L521.647 203.658Z" fill="#9A5EFB"/>
<path d="M459.484 202.387L446.961 198.275L427.932 229.548L459.484 245.993V202.387Z" fill="#9A5EFB"/>
<path d="M489.148 178.302C499.759 178.302 508.361 169.686 508.361 159.057C508.361 148.429 499.759 139.813 489.148 139.813C478.538 139.813 469.936 148.429 469.936 159.057C469.936 169.686 478.538 178.302 489.148 178.302Z" fill="#9E616A"/>
<path d="M494.952 132.029C491.686 131.493 488.435 132.409 485.185 132.515C483.586 132.568 481.98 132.369 480.389 132.534C478.798 132.699 477.152 133.299 476.211 134.594C475.552 135.5 475.249 136.717 474.309 137.325C473.576 137.799 472.611 137.785 471.872 138.251C470.45 139.147 470.505 141.309 469.362 142.542C468.818 143.129 468.018 143.484 467.632 144.185C467.42 144.646 467.309 145.147 467.307 145.655L466.752 153.023C466.676 153.235 466.654 153.463 466.689 153.686C466.725 153.908 466.816 154.118 466.954 154.296C467.092 154.474 467.274 154.614 467.481 154.702C467.688 154.791 467.914 154.826 468.138 154.803C469.466 154.984 471.081 155.049 471.853 153.951C472.766 152.653 472.074 150.242 473.578 149.74C474.911 149.296 475.986 151.169 477.39 151.208C478.448 151.237 479.205 150.248 479.89 149.439C480.574 148.63 481.707 147.863 482.612 148.414C483.366 148.874 483.427 149.959 483.996 150.636C484.855 151.658 486.494 151.403 487.709 150.851C488.924 150.3 490.183 149.522 491.491 149.788C493.318 150.16 494.26 152.379 496.047 152.911C498.606 153.674 501.359 150.614 503.757 151.791C504.881 152.342 505.417 153.654 505.608 154.893C505.799 156.132 505.746 157.417 506.138 158.608C506.53 159.798 507.556 160.92 508.806 160.869C508.717 160.011 508.926 159.148 509.398 158.427C509.769 157.864 510.289 157.407 510.626 156.822C511.789 154.801 510.376 152.255 510.656 149.938C510.727 149.355 510.907 148.784 510.924 148.196C510.968 146.612 509.849 145.262 508.795 144.08L507.556 142.691C506.459 141.383 505.246 140.177 503.933 139.086C502.892 138.371 501.889 137.602 500.928 136.783C498.998 134.919 497.802 132.497 494.952 132.029Z" fill="#2F2E41"/>
<path d="M69.5961 310.002V66.4444C69.5973 65.3846 70.0181 64.3686 70.7662 63.6193C71.5143 62.8699 72.5286 62.4484 73.5866 62.4473H422.356C423.414 62.4484 424.428 62.8699 425.176 63.6193C425.925 64.3686 426.345 65.3846 426.347 66.4444V310.002C426.345 311.062 425.925 312.078 425.176 312.828C424.428 313.577 423.414 313.998 422.356 314H73.5866C72.5286 313.998 71.5143 313.577 70.7662 312.828C70.0181 312.078 69.5973 311.062 69.5961 310.002Z" fill="white"/>
<path d="M73.5866 316.541C71.857 316.537 70.1995 315.847 68.9763 314.623C67.7531 313.398 67.0637 311.738 67.0588 310.005V66.4444C67.063 64.712 67.7516 63.0517 68.9743 61.8264C70.197 60.6011 71.8542 59.9105 73.5837 59.9056H422.356C424.086 59.9098 425.743 60.5997 426.966 61.8244C428.19 63.0492 428.879 64.7092 428.884 66.4416V310.003C428.88 311.735 428.191 313.395 426.968 314.62C425.746 315.846 424.088 316.536 422.359 316.541H73.5866ZM72.1334 310C72.1345 310.386 72.2882 310.757 72.561 311.03C72.8339 311.303 73.2036 311.457 73.5894 311.458H422.356C422.742 311.457 423.111 311.302 423.383 311.029C423.655 310.756 423.808 310.386 423.809 310V66.4444C423.808 66.0583 423.654 65.6886 423.381 65.4159C423.108 65.1432 422.739 64.9896 422.353 64.9887H73.5866C73.2012 64.9904 72.8321 65.1447 72.5598 65.4179C72.2876 65.6911 72.1343 66.0611 72.1334 66.4472V310Z" fill="#E4E4E4"/>
<path d="M365.072 119.337C365.902 119.351 366.693 119.691 367.275 120.283C367.857 120.876 368.184 121.674 368.184 122.506C368.184 123.337 367.857 124.136 367.275 124.729C366.693 125.321 365.902 125.661 365.072 125.675H285.749C285.334 125.682 284.92 125.607 284.534 125.455C284.147 125.302 283.794 125.074 283.495 124.785C283.196 124.495 282.957 124.15 282.791 123.768C282.626 123.385 282.537 122.974 282.53 122.558C282.524 122.142 282.599 121.728 282.752 121.341C282.905 120.953 283.132 120.6 283.421 120.301C283.711 120.002 284.056 119.763 284.438 119.597C284.819 119.432 285.23 119.343 285.645 119.337C285.68 119.336 285.715 119.336 285.749 119.337H365.072Z" fill="#E4E4E4"/>
<path d="M365.072 141.738C365.902 141.751 366.693 142.091 367.275 142.684C367.858 143.277 368.184 144.075 368.184 144.907C368.184 145.738 367.858 146.536 367.275 147.129C366.693 147.722 365.902 148.062 365.072 148.076H285.749C285.334 148.082 284.921 148.007 284.535 147.854C284.148 147.701 283.796 147.474 283.497 147.184C283.198 146.895 282.96 146.549 282.794 146.167C282.629 145.786 282.541 145.375 282.534 144.959C282.527 144.542 282.602 144.129 282.755 143.742C282.907 143.355 283.135 143.002 283.424 142.703C283.713 142.404 284.057 142.164 284.439 141.999C284.82 141.833 285.23 141.745 285.645 141.738C285.68 141.737 285.715 141.737 285.749 141.738H365.072Z" fill="#E4E4E4"/>
<path d="M365.072 164.138C365.902 164.152 366.693 164.492 367.275 165.085C367.857 165.678 368.184 166.476 368.184 167.307C368.184 168.139 367.857 168.937 367.275 169.53C366.693 170.123 365.902 170.463 365.072 170.476H285.749C285.334 170.484 284.92 170.409 284.534 170.256C284.147 170.103 283.794 169.876 283.495 169.586C283.196 169.297 282.957 168.951 282.791 168.569C282.626 168.187 282.537 167.776 282.53 167.359C282.524 166.943 282.599 166.529 282.752 166.142C282.905 165.755 283.132 165.401 283.421 165.102C283.711 164.803 284.056 164.564 284.438 164.399C284.819 164.233 285.23 164.145 285.645 164.138C285.68 164.138 285.715 164.138 285.749 164.138H365.072Z" fill="#E4E4E4"/>
<path d="M314.527 198.768C314.527 196.622 315.162 194.524 316.352 192.74C317.542 190.955 319.234 189.565 321.213 188.743C323.193 187.922 325.371 187.707 327.472 188.126C329.573 188.545 331.503 189.578 333.018 191.095C334.533 192.613 335.564 194.546 335.982 196.651C336.4 198.756 336.186 200.937 335.366 202.92C334.546 204.902 333.158 206.597 331.377 207.789C329.595 208.981 327.501 209.618 325.359 209.618C323.936 209.618 322.528 209.337 321.213 208.792C319.899 208.247 318.705 207.447 317.699 206.44C316.693 205.432 315.896 204.236 315.351 202.92C314.807 201.603 314.527 200.193 314.527 198.768Z" fill="#9A5EFB"/>
<path d="M321.085 197.697H324.29V194.487C324.29 194.203 324.403 193.932 324.603 193.731C324.803 193.531 325.074 193.418 325.357 193.418C325.64 193.417 325.911 193.529 326.112 193.729C326.312 193.928 326.426 194.2 326.427 194.483V197.697H329.633C329.916 197.697 330.188 197.81 330.388 198.011C330.589 198.212 330.701 198.484 330.701 198.768C330.701 199.052 330.589 199.324 330.388 199.525C330.188 199.725 329.916 199.838 329.633 199.838H326.427V203.049C326.426 203.332 326.313 203.603 326.113 203.803C325.913 204.003 325.641 204.116 325.359 204.116C325.076 204.116 324.805 204.003 324.604 203.803C324.404 203.603 324.291 203.332 324.29 203.049V199.838H321.085C320.944 199.838 320.805 199.811 320.676 199.757C320.546 199.704 320.428 199.625 320.328 199.526C320.229 199.427 320.15 199.309 320.096 199.179C320.042 199.049 320.014 198.91 320.014 198.77C320.014 198.629 320.041 198.49 320.095 198.36C320.148 198.23 320.227 198.112 320.326 198.012C320.425 197.913 320.542 197.834 320.672 197.78C320.801 197.726 320.94 197.698 321.081 197.697H321.085Z" fill="white"/>
<path d="M213.032 148.155C213.038 153.224 212.136 158.252 210.368 163.001C209.565 165.176 208.58 167.279 207.424 169.288C203.706 175.786 198.342 181.185 191.873 184.94C185.404 188.694 178.06 190.672 170.584 190.672C163.108 190.672 155.764 188.694 149.295 184.94C142.826 181.185 137.462 175.786 133.744 169.288C133.368 168.635 133.011 167.971 132.674 167.298C129.788 161.565 128.237 155.252 128.135 148.832C128.033 142.412 129.384 136.052 132.086 130.23C134.789 124.408 138.772 119.275 143.738 115.215C148.703 111.155 154.523 108.274 160.759 106.788C166.995 105.303 173.485 105.251 179.744 106.637C186.003 108.023 191.867 110.811 196.897 114.791C201.926 118.771 205.991 123.841 208.785 129.619C211.58 135.398 213.031 141.735 213.032 148.155Z" fill="#E4E4E4"/>
<path d="M172.791 155.333C177.273 155.333 180.906 151.694 180.906 147.205C180.906 142.715 177.273 139.076 172.791 139.076C168.309 139.076 164.676 142.715 164.676 147.205C164.676 151.694 168.309 155.333 172.791 155.333Z" fill="#9A5EFB"/>
<path d="M132.674 167.298C136.249 163.428 141.029 157.283 145.512 161.723C147.762 163.817 151.283 169.007 154.653 165.614L180.974 139.25C181.469 138.76 182.058 138.374 182.704 138.115C183.35 137.856 184.042 137.729 184.738 137.741C185.435 137.754 186.121 137.906 186.758 138.188C187.395 138.47 187.969 138.877 188.447 139.384L210.368 163.001C209.565 165.176 208.58 167.279 207.424 169.288H133.744L132.674 167.298Z" fill="white"/>
<path d="M207.444 266.746C207.177 266.746 206.913 266.798 206.666 266.9C206.419 267.002 206.195 267.152 206.006 267.341C205.818 267.529 205.668 267.754 205.566 268C205.463 268.247 205.411 268.512 205.411 268.779C205.411 269.047 205.463 269.311 205.566 269.558C205.668 269.805 205.818 270.029 206.006 270.218C206.195 270.407 206.419 270.556 206.666 270.658C206.913 270.76 207.177 270.813 207.444 270.812H228.74C229.007 270.813 229.272 270.76 229.518 270.658C229.765 270.556 229.989 270.407 230.178 270.218C230.367 270.029 230.516 269.805 230.619 269.558C230.721 269.311 230.773 269.047 230.773 268.779C230.773 268.512 230.721 268.247 230.619 268C230.516 267.754 230.367 267.529 230.178 267.341C229.989 267.152 229.765 267.002 229.518 266.9C229.272 266.798 229.007 266.746 228.74 266.746H207.444Z" fill="#9A5EFB"/>
<path d="M111.496 236.888C110.958 236.888 110.442 237.102 110.061 237.483C109.68 237.864 109.467 238.381 109.467 238.92C109.467 239.46 109.68 239.977 110.061 240.358C110.442 240.739 110.958 240.953 111.496 240.953H229.672C230.21 240.953 230.726 240.739 231.107 240.358C231.488 239.977 231.701 239.46 231.701 238.92C231.701 238.381 231.488 237.864 231.107 237.483C230.726 237.102 230.21 236.888 229.672 236.888H111.496Z" fill="#E5E5E5"/>
<path d="M111.496 251.817C110.958 251.817 110.442 252.031 110.061 252.412C109.68 252.794 109.467 253.311 109.467 253.85C109.467 254.389 109.68 254.906 110.061 255.287C110.442 255.669 110.958 255.883 111.496 255.883H229.672C230.21 255.883 230.726 255.669 231.107 255.287C231.488 254.906 231.701 254.389 231.701 253.85C231.701 253.311 231.488 252.794 231.107 252.412C230.726 252.031 230.21 251.817 229.672 251.817H111.496Z" fill="#E5E5E5"/>
<path d="M362.218 266.746C361.951 266.746 361.687 266.798 361.441 266.9C361.194 267.002 360.97 267.152 360.781 267.341C360.592 267.529 360.442 267.754 360.34 268C360.238 268.247 360.185 268.512 360.185 268.779C360.185 269.047 360.238 269.311 360.34 269.558C360.442 269.805 360.592 270.029 360.781 270.218C360.97 270.407 361.194 270.556 361.441 270.658C361.687 270.76 361.951 270.813 362.218 270.812H383.515C383.782 270.813 384.046 270.76 384.293 270.658C384.539 270.556 384.763 270.407 384.952 270.218C385.141 270.029 385.291 269.805 385.393 269.558C385.495 269.311 385.548 269.047 385.548 268.779C385.548 268.512 385.495 268.247 385.393 268C385.291 267.754 385.141 267.529 384.952 267.341C384.763 267.152 384.539 267.002 384.293 266.9C384.046 266.798 383.782 266.746 383.515 266.746H362.218Z" fill="#9A5EFB"/>
<path d="M266.271 236.888C265.732 236.888 265.216 237.102 264.836 237.483C264.455 237.864 264.241 238.381 264.241 238.92C264.241 239.46 264.455 239.977 264.836 240.358C265.216 240.739 265.732 240.953 266.271 240.953H384.446C384.985 240.953 385.501 240.739 385.882 240.358C386.262 239.977 386.476 239.46 386.476 238.92C386.476 238.381 386.262 237.864 385.882 237.483C385.501 237.102 384.985 236.888 384.446 236.888H266.271Z" fill="#E5E5E5"/>
<path d="M266.271 251.817C265.732 251.817 265.216 252.031 264.836 252.412C264.455 252.794 264.241 253.311 264.241 253.85C264.241 254.389 264.455 254.906 264.836 255.287C265.216 255.669 265.732 255.883 266.271 255.883H384.446C384.985 255.883 385.501 255.669 385.882 255.287C386.262 254.906 386.476 254.389 386.476 253.85C386.476 253.311 386.262 252.794 385.882 252.412C385.501 252.031 384.985 251.817 384.446 251.817H266.271Z" fill="#E5E5E5"/>
<path d="M210.534 349.875C208.77 352.492 206.875 355.065 204.903 357.523L203.7 356.555C205.646 354.13 207.515 351.591 209.255 349.01L210.534 349.875ZM198.659 364.677C196.49 366.963 194.197 369.187 191.845 371.287L190.818 370.133C193.139 368.062 195.4 365.868 197.541 363.612L198.659 364.677ZM184.507 377.309C181.995 379.202 179.369 381.017 176.701 382.704L175.877 381.397C178.51 379.733 181.101 377.942 183.579 376.074L184.507 377.309ZM167.766 386.076L168.481 387.445C165.686 388.91 162.801 390.275 159.908 391.502L159.306 390.079C162.162 388.868 165.008 387.522 167.766 386.076ZM150.548 393.373L151.03 394.841C148.038 395.827 144.969 396.7 141.907 397.435L141.547 395.931C144.568 395.207 147.596 394.346 150.548 393.373L150.548 393.373ZM132.365 397.733L132.599 399.261C129.485 399.738 126.311 400.091 123.166 400.309L123.059 398.767C126.162 398.552 129.293 398.205 132.365 397.733ZM25.8581 214.861C23.9398 217.305 22.0986 219.863 20.3854 222.463L19.0976 221.611C20.8343 218.976 22.7006 216.383 24.645 213.906L25.8581 214.861ZM113.701 399.025L113.68 400.571C110.532 400.527 107.345 400.352 104.206 400.049L104.355 398.511C107.451 398.809 110.595 398.983 113.701 399.025ZM15.5572 230.492C14.0657 233.221 12.6687 236.047 11.4053 238.892L9.99537 238.263C11.2762 235.38 12.6922 232.516 14.2039 229.75L15.5572 230.492ZM95.0824 397.228L94.8089 398.749C91.7083 398.189 88.5936 397.494 85.5501 396.683L85.9469 395.189C88.9498 395.99 92.0233 396.676 95.0824 397.228L95.0824 397.228ZM7.95433 247.604C6.92708 250.543 6.00932 253.561 5.22638 256.572L3.73319 256.183C4.5269 253.131 5.45694 250.073 6.49771 247.094L7.95433 247.604ZM77.0092 392.409L76.4919 393.865C73.5254 392.807 70.5656 391.612 67.6952 390.314L68.3299 388.906C71.1624 390.186 74.0823 391.365 77.0092 392.409ZM3.24033 265.734C2.70589 268.801 2.29202 271.928 2.01048 275.028L0.473636 274.888C0.759278 271.746 1.17849 268.577 1.72013 265.468L3.24033 265.734ZM59.9686 384.702L59.2205 386.054C56.4648 384.523 53.7412 382.86 51.1251 381.11L51.9822 379.825C54.5628 381.551 57.2499 383.192 59.9686 384.702ZM1.54689 284.392C1.52124 287.509 1.62522 290.662 1.85598 293.762L0.316982 293.877C0.0834248 290.735 -0.0218187 287.539 0.00375082 284.379L1.54689 284.392ZM44.426 374.305L43.4663 375.515C41.0015 373.552 38.5894 371.463 36.2972 369.305L37.3541 368.179C39.6151 370.308 41.9945 372.369 44.426 374.305ZM2.93725 303.075C3.424 306.149 4.0461 309.241 4.78647 312.266L3.28807 312.634C2.53756 309.568 1.90678 306.433 1.41334 303.318L2.93725 303.075ZM30.8089 361.482L29.6625 362.517C27.5571 360.176 25.5214 357.715 23.6119 355.202L24.8397 354.266C26.7237 356.745 28.7317 359.173 30.8089 361.482ZM7.39042 321.271C8.37564 324.217 9.4983 327.163 10.7277 330.028L9.30991 330.638C8.06425 327.734 6.92588 324.748 5.92753 321.763L7.39042 321.271ZM19.4845 346.581L18.1843 347.414C16.4911 344.759 14.8799 341.99 13.407 339.206L14.7704 338.482C16.2244 341.231 17.8139 343.962 19.4845 346.581H19.4845Z" fill="#F0F0F0"/>
<path d="M653.245 488H242.652C242.452 487.999 242.261 487.919 242.119 487.778C241.978 487.636 241.899 487.444 241.899 487.243C241.899 487.043 241.978 486.851 242.119 486.709C242.261 486.567 242.452 486.487 242.652 486.487H653.245C653.445 486.487 653.637 486.567 653.779 486.708C653.92 486.85 654 487.043 654 487.243C654 487.444 653.92 487.637 653.779 487.778C653.637 487.92 653.445 488 653.245 488Z" fill="#CACACA"/>
</g>
<defs>
<clipPath id="clip0_5_43">
<rect width="654" height="488" fill="white"/>
</clipPath>
</defs>
</svg>
